# File created by Blade
# Date/Time:  Wed Sep 24 20:21:23 2014
# Frame Rate: 120.000 fps
#------------------------------------------------------
:FULLY-SPECIFIED
:DEGREES
757
root -7.647215 33.394658 -4.042888 10.097442 21.447862 37.536258
Spine 3.798921 -23.088609 -41.991740
Head 5.468381 -4.452808 15.216103
LeftShoulder 6.906140 -24.748460 29.108440
LeftArm 135.072463 -69.767678 -151.413528
LeftForeArm -14.895463 -0.000000 46.343511
LeftHand -14.458308 -0.000000 -32.106884
LeftHandThumb1 -26.253704 0.000000 33.147579
RightShoulder -15.008655 21.184269 -29.648726
RightArm -10.010459 4.862872 16.627514
RightForeArm -22.777065 -0.000000 9.246642
RightHand -7.798303 0.000000 10.969850
RightHandThumb1 -24.326973 -0.000000 -32.862282
LeftUpLeg -151.512339 36.105215 -33.712956
LeftLeg 0.941408 -0.000000 -0.000000
LeftFoot 40.764191 26.002029 -9.560224
LeftToeBase 10.084081 -0.000000 -0.000000
RightUpLeg -6.426839 -4.561498 -27.156431
RightLeg 33.387526 -0.000000 -0.000000
RightFoot -21.049877 -32.417059 -2.774347
RightToeBase -0.355080 -0.000000 0.000000
758
root -7.646928 33.392030 -4.042390 10.073675 21.414371 37.514249
Spine 3.794775 -23.059822 -42.006380
Head 5.494373 -4.436965 15.222887
LeftShoulder 6.880511 -24.739417 29.129336
LeftArm 135.113564 -69.762850 -151.452062
LeftForeArm -14.950796 -0.000000 46.354056
LeftHand -14.486350 -0.000000 -32.354237
LeftHandThumb1 -26.253704 0.000000 33.147579
RightShoulder -14.995459 21.180556 -29.626849
RightArm -9.983133 4.783621 16.628548
RightForeArm -22.692276 0.000000 9.231864
RightHand -7.826369 0.000000 11.007599
RightHandThumb1 -24.326973 -0.000000 -32.862282
LeftUpLeg -151.537830 36.214195 -33.697850
LeftLeg 1.012192 -0.000000 -0.000000
LeftFoot 40.776537 25.999881 -9.543128
LeftToeBase 10.059414 -0.000000 -0.000000
RightUpLeg -6.447209 -4.489823 -27.142510
RightLeg 33.435293 -0.000000 -0.000000
RightFoot -21.027065 -32.419093 -2.851218
RightToeBase -0.294486 -0.000000 0.000000
759
root -7.646297 33.388650 -4.043556 10.050881 21.408551 37.490050
Spine 3.810491 -23.045159 -42.000975
Head 5.516289 -4.432350 15.164235
LeftShoulder 6.872923 -24.754057 29.108261
LeftArm 135.127236 -69.797194 -151.420106
LeftForeArm -14.993489 -0.000000 46.322001
LeftHand -14.564720 -0.000000 -32.335111
LeftHandThumb1 -26.253704 0.000000 33.147579
RightShoulder -14.995332 21.169386 -29.625821
RightArm -9.941010 4.779809 16.632131
RightForeArm -22.646775 -0.000000 9.172897
RightHand -7.867663 -0.000000 11.044258
RightHandThumb1 -24.326973 -0.000000 -32.862282
LeftUpLeg -151.566620 36.239485 -33.688350
LeftLeg 1.091027 -0.000000 -0.000000
LeftFoot 40.805150 26.000081 -9.521786
LeftToeBase 10.108804 -0.000000 -0.000000
RightUpLeg -6.462541 -4.535112 -27.123259
RightLeg 33.461330 -0.000000 -0.000000
RightFoot -21.042516 -32.421057 -2.806304
RightToeBase -0.391373 -0.000000 0.000000
760
root -7.645514 33.386043 -4.045645 10.045245 21.407529 37.487725
Spine 3.826527 -23.040837 -42.025268
Head 5.527654 -4.432255 15.136257
LeftShoulder 6.859380 -24.806615 29.113635
LeftArm 135.019083 -69.882147 -151.297738
LeftForeArm -15.022044 -0.000000 46.310915
LeftHand -14.563927 -0.000000 -32.320271
LeftHandThumb1 -26.253704 0.000000 33.147579
RightShoulder -14.980391 21.155743 -29.610297
RightArm -9.936748 4.775108 16.641059
RightForeArm -22.617844 -0.000000 9.180078
RightHand -7.903804 -0.000000 11.070323
RightHandThumb1 -24.326973 -0.000000 -32.862282
LeftUpLeg -151.549938 36.312327 -33.658203
LeftLeg 1.119476 -0.000000 -0.000000
LeftFoot 40.784528 26.068402 -9.535775
LeftToeBase 10.308132 -0.000000 -0.000000
RightUpLeg -6.479310 -4.565929 -27.127546
RightLeg 33.503622 -0.000000 -0.000000
RightFoot -21.109671 -32.376712 -2.734575
RightToeBase -0.361670 -0.000000 0.000000
761
root -7.645487 33.383062 -4.048931 10.041189 21.413708 37.484341
Spine 3.855517 -23.035650 -42.054904
Head 5.529104 -4.451734 15.113344
LeftShoulder 6.843609 -24.798960 29.124186
LeftArm 134.957645 -69.906817 -151.203367
LeftForeArm -15.047758 0.000000 46.324045
LeftHand -14.588169 -0.000000 -32.250145
LeftHandThumb1 -26.253704 0.000000 33.147579
RightShoulder -14.970623 21.136897 -29.586923
RightArm -9.933919 4.750365 16.662950
RightForeArm -22.556028 -0.000000 9.185411
RightHand -7.957345 -0.000000 11.061473
RightHandThumb1 -24.326973 -0.000000 -32.862282
LeftUpLeg -151.544675 36.333798 -33.653182
LeftLeg 1.126708 -0.000000 -0.000000
LeftFoot 40.812346 26.074876 -9.529868
LeftToeBase 10.271573 -0.000000 -0.000000
RightUpLeg -6.494312 -4.628431 -27.132890
RightLeg 33.539399 -0.000000 -0.000000
RightFoot -21.147627 -32.330421 -2.714480
RightToeBase -0.364407 -0.000000 0.000000
762
root -7.643972 33.379428 -4.055138 10.053638 21.421389 37.495566
Spine 3.888009 -23.030254 -42.111163
Head 5.520157 -4.484203 15.157609
LeftShoulder 6.830980 -24.798812 29.178168
LeftArm 134.905389 -69.930207 -151.152974
LeftForeArm -15.109098 -0.000000 46.356042
LeftHand -14.607660 -0.000000 -32.245693
LeftHandThumb1 -26.253704 0.000000 33.147579
RightShoulder -14.981582 21.299812 -29.634579
RightArm -10.013780 4.600608 16.726561
RightForeArm -22.540999 0.000000 9.255171
RightHand -7.873645 -0.000000 11.059515
RightHandThumb1 -24.326973 -0.000000 -32.862282
LeftUpLeg -151.517841 36.367037 -33.639901
LeftLeg 1.096230 -0.000000 -0.000000
LeftFoot 40.829823 26.121352 -9.497333
LeftToeBase 10.221565 -0.000000 -0.000000
RightUpLeg -6.530303 -4.695126 -27.156893
RightLeg 33.596673 -0.000000 -0.000000
RightFoot -21.196646 -32.256652 -2.678368
RightToeBase -0.367696 -0.000000 0.000000
763
root -7.643152 33.375525 -4.061617 10.072146 21.428113 37.496605
Spine 3.905723 -23.021466 -42.141467
Head 5.508462 -4.525587 15.143117
LeftShoulder 6.835477 -24.812806 29.209780
LeftArm 134.892834 -69.945291 -151.128178
LeftForeArm -15.129520 -0.000000 46.382911
LeftHand -14.582594 -0.000000 -32.269134
LeftHandThumb1 -26.253704 0.000000 33.147579
RightShoulder -14.987074 21.295604 -29.657865
RightArm -10.027557 4.705791 16.797882
RightForeArm -22.620375 -0.000000 9.249458
RightHand -7.894756 -0.000000 11.041002
RightHandThumb1 -24.326973 -0.000000 -32.862282
LeftUpLeg -151.543023 36.310882 -33.672118
LeftLeg 1.073674 -0.000000 -0.000000
LeftFoot 40.900066 26.149784 -9.414422
LeftToeBase 9.826346 -0.000000 -0.000000
RightUpLeg -6.578441 -4.739618 -27.165556
RightLeg 33.654393 -0.000000 -0.000000
RightFoot -21.238686 -32.222039 -2.643995
RightToeBase -0.377481 -0.000000 0.000000
764
root -7.642392 33.373872 -4.066112 10.087639 21.433437 37.514483
Spine 3.926780 -23.000375 -42.194831
Head 5.508858 -4.558347 15.114606
LeftShoulder 6.841436 -24.811624 29.238250
LeftArm 134.896536 -69.921615 -151.115775
LeftForeArm -15.118113 -0.000000 46.410031
LeftHand -14.552727 -0.000000 -32.269156
LeftHandThumb1 -26.253704 0.000000 33.147579
RightShoulder -14.989248 21.267411 -29.646370
RightArm -10.029510 4.789678 16.849863
RightForeArm -22.650915 -0.000000 9.230746
RightHand -7.845877 -0.000000 11.039948
RightHandThumb1 -24.326973 -0.000000 -32.862282
LeftUpLeg -151.469186 36.416156 -33.638084
LeftLeg 0.978159 -0.000000 -0.000000
LeftFoot 40.864275 26.144613 -9.436311
LeftToeBase 9.749791 -0.000000 -0.000000
RightUpLeg -6.611353 -4.802436 -27.194558
RightLeg 33.704489 -0.000000 -0.000000
RightFoot -21.268435 -32.162964 -2.598683
RightToeBase -0.377505 -0.000000 0.000000
765
root -7.641834 33.371109 -4.071093 10.092653 21.438080 37.508255
Spine 3.950358 -22.983153 -42.215754
Head 5.512557 -4.587517 15.080503
LeftShoulder 6.837232 -24.811509 29.253446
LeftArm 134.904218 -69.889384 -151.094023
LeftForeArm -15.117306 -0.000000 46.440805
LeftHand -14.540409 -0.000000 -32.262495
LeftHandThumb1 -26.253704 0.000000 33.147579
RightShoulder -14.982182 21.274521 -29.639247
RightArm -10.044169 4.799718 16.903949
RightForeArm -22.630331 -0.000000 9.226956
RightHand -7.819603 -0.000000 11.144531
RightHandThumb1 -24.326973 -0.000000 -32.862282
LeftUpLeg -151.437366 36.455644 -33.616395
LeftLeg 0.904209 -0.000000 -0.000000
LeftFoot 40.839129 26.210148 -9.458686
LeftToeBase 9.836240 -0.000000 -0.000000
RightUpLeg -6.646854 -4.804081 -27.195163
RightLeg 33.759738 -0.000000 -0.000000
RightFoot -21.347304 -32.092023 -2.456684
RightToeBase -0.402720 -0.000000 0.000000
766
root -7.642317 33.368199 -4.076015 10.097428 21.440383 37.494662
Spine 3.967979 -22.957026 -42.231338
Head 5.536103 -4.606070 15.046900
LeftShoulder 6.836201 -24.808894 29.269505
LeftArm 134.865116 -69.866421 -151.025198
LeftForeArm -15.102208 -0.000000 46.467364
LeftHand -14.509033 0.000000 -32.261259
LeftHandThumb1 -26.253704 0.000000 33.147579
RightShoulder -15.000818 21.259444 -29.636453
RightArm -10.011075 4.902353 16.984299
RightForeArm -22.717578 -0.000000 9.203923
RightHand -7.831883 0.000000 11.132694
RightHandThumb1 -24.326973 -0.000000 -32.862282
LeftUpLeg -151.423762 36.487984 -33.618617
LeftLeg 0.822648 -0.000000 -0.000000
LeftFoot 40.788029 26.200099 -9.551293
LeftToeBase 10.144969 -0.000000 -0.000000
RightUpLeg -6.687392 -4.821923 -27.189369
RightLeg 33.814963 -0.000000 -0.000000
RightFoot -21.419187 -32.016140 -2.318627
RightToeBase -0.461471 -0.000000 0.000000
767
root -7.641319 33.365848 -4.079744 10.083191 21.439305 37.469854
Spine 3.983661 -22.901055 -42.215871
Head 5.589470 -4.627756 14.955333
LeftShoulder 6.850254 -24.775351 29.241664
LeftArm 134.841706 -69.821525 -150.941535
LeftForeArm -15.138218 -0.000000 46.467987
LeftHand -14.455789 0.000000 -32.185884
LeftHandThumb1 -26.253704 0.000000 33.147579
RightShoulder -15.018250 21.259645 -29.621169
RightArm -9.984470 4.915697 17.019825
RightForeArm -22.690312 -0.000000 9.155514
RightHand -7.819646 0.000000 11.174193
RightHandThumb1 -24.326973 -0.000000 -32.862282
LeftUpLeg -151.417162 36.503824 -33.609218
LeftLeg 0.766721 -0.000000 -0.000000
LeftFoot 40.659034 26.287671 -9.629936
LeftToeBase 10.635466 -0.000000 -0.000000
RightUpLeg -6.705236 -4.846052 -27.181235
RightLeg 33.853785 -0.000000 -0.000000
RightFoot -21.492466 -31.918116 -2.182659
RightToeBase -0.469294 -0.000000 0.000000
768
root -7.638470 33.364771 -4.083338 10.083968 21.439008 37.459057
Spine 3.984846 -22.859369 -42.199337
Head 5.647482 -4.651310 14.836020
LeftShoulder 6.846495 -24.802812 29.229731
LeftArm 134.762496 -69.809702 -150.864911
LeftForeArm -15.190976 -0.000000 46.492728
LeftHand -14.437731 0.000000 -32.181235
LeftHandThumb1 -26.253704 0.000000 33.147579
RightShoulder -15.009815 21.132051 -29.600077
RightArm -9.940264 4.935903 17.094504
RightForeArm -22.602251 0.000000 9.150472
RightHand -7.824331 -0.000000 11.318686
RightHandThumb1 -24.326973 -0.000000 -32.862282
LeftUpLeg -151.413621 36.521982 -33.604351
LeftLeg 0.720337 -0.000000 -0.000000
LeftFoot 40.586874 26.379665 -9.641476
LeftToeBase 10.462115 -0.000000 -0.000000
RightUpLeg -6.722568 -4.892573 -27.193400
RightLeg 33.880841 -0.000000 -0.000000
RightFoot -21.531501 -31.819681 -2.141539
RightToeBase -0.503406 -0.000000 0.000000
769
root -7.635953 33.363050 -4.085135 10.061860 21.431925 37.428694
Spine 3.990818 -22.807447 -42.170424
Head 5.717900 -4.657160 14.719047
LeftShoulder 6.834929 -24.793723 29.216749
LeftArm 134.747929 -69.756161 -150.845906
LeftForeArm -15.254393 -0.000000 46.517035
LeftHand -14.471271 -0.000000 -32.181237
LeftHandThumb1 -26.253704 0.000000 33.147579
RightShoulder -15.010997 21.098003 -29.597952
RightArm -9.894740 5.089617 17.159890
RightForeArm -22.682394 -0.000000 9.083319
RightHand -7.668037 -0.000000 11.291420
RightHandThumb1 -24.326973 -0.000000 -32.862282
LeftUpLeg -151.447726 36.524653 -33.614085
LeftLeg 0.729301 -0.000000 -0.000000
LeftFoot 40.722727 26.298011 -9.431343
LeftToeBase 9.852300 -0.000000 -0.000000
RightUpLeg -6.731397 -4.954493 -27.189682
RightLeg 33.908904 -0.000000 -0.000000
RightFoot -21.590152 -31.695871 -2.046123
RightToeBase -0.555557 -0.000000 0.000000
